<svg xmlns="http://www.w3.org/2000/svg" xmlns:xlink="http://www.w3.org/1999/xlink" version="1.1" x="0px" y="0px" viewBox="0 0 32 40" enable-background="new 0 0 32 32" xml:space="preserve"><g><path d="M17,13c0-0.6-0.4-1-1-1s-1,0.4-1,1v4h-4c-0.6,0-1,0.4-1,1s0.4,1,1,1h4v4c0,0.6,0.4,1,1,1s1-0.4,1-1v-4h4c0.6,0,1-0.4,1-1   s-0.4-1-1-1h-4V13z"/><path d="M25.7,9.3l-7-7c-0.1-0.1-0.2-0.2-0.3-0.2C18.3,2,18.1,2,18,2H9C7.3,2,6,3.3,6,5v22c0,1.7,1.3,3,3,3h14c1.7,0,3-1.3,3-3V10   c0-0.1,0-0.3-0.1-0.4C25.9,9.5,25.8,9.4,25.7,9.3z M19,5.4L22.6,9H20c-0.6,0-1-0.4-1-1V5.4z M24,27c0,0.6-0.4,1-1,1H9   c-0.6,0-1-0.4-1-1V5c0-0.6,0.4-1,1-1h8v4c0,1.7,1.3,3,3,3h4V27z"/></g><text x="0" y="47" fill="#000000" font-size="5px" font-weight="bold" font-family="'Helvetica Neue', Helvetica, Arial-Unicode, Arial, Sans-serif">Created by Mask Icon</text><text x="0" y="52" fill="#000000" font-size="5px" font-weight="bold" font-family="'Helvetica Neue', Helvetica, Arial-Unicode, Arial, Sans-serif">from the Noun Project</text></svg>